<?xml version="1.0" standalone="no"?>
<!DOCTYPE svg PUBLIC "-//W3C//DTD SVG 20010904//EN"
 "http://www.w3.org/TR/2001/REC-SVG-20010904/DTD/svg10.dtd">
<svg version="1.0" xmlns="http://www.w3.org/2000/svg"
 width="225.000000pt" height="225.000000pt" viewBox="0 0 225.000000 225.000000"
 preserveAspectRatio="xMidYMid meet">

<g transform="translate(0.000000,225.000000) scale(0.100000,-0.100000)"
fill="#000000" stroke="none">
<path d="M416 2228 c-11 -15 -16 -46 -16 -95 l0 -73 -78 0 c-47 0 -83 -5 -90
-12 -17 -17 -17 -1699 0 -1716 9 -9 107 -12 381 -12 l369 0 -6 -27 c-3 -16 -9
-83 -12 -149 -7 -116 -6 -122 14 -133 32 -17 49 -4 83 65 37 74 109 146 176
176 60 27 179 47 276 48 l77 0 0 -55 c0 -50 2 -55 25 -61 16 -4 32 -1 43 8
147 123 372 333 372 347 0 12 -46 60 -115 121 l-115 101 0 598 0 597 -148 147
-149 147 -536 0 -536 0 -15 -22z m1034 -193 c0 -113 2 -125 19 -135 11 -5 72
-10 135 -10 l116 0 0 -525 c0 -499 -1 -525 -18 -516 -9 5 -26 19 -36 30 -22
24 -48 27 -64 8 -6 -7 -12 -42 -14 -77 l-3 -65 -90 -6 c-153 -11 -272 -52
-348 -119 l-35 -30 -311 0 -311 0 0 785 0 785 480 0 480 0 0 -125z m145 5 l59
-60 -62 0 -62 0 0 60 c0 33 1 60 3 60 1 0 29 -27 62 -60z m-1195 -782 c0 -657
1 -723 17 -740 15 -17 38 -18 320 -18 166 0 303 -2 303 -4 0 -2 -9 -24 -20
-50 l-21 -46 -344 0 -345 0 0 790 0 790 45 0 45 0 0 -722z m1466 -668 c29 -25
52 -48 51 -52 -1 -4 -56 -54 -122 -112 -111 -98 -120 -104 -123 -81 -5 42 -33
48 -166 41 -208 -12 -322 -46 -405 -121 -23 -21 -43 -36 -45 -34 -7 9 26 144
49 194 67 152 228 234 466 235 44 0 80 5 87 12 7 7 12 30 12 51 l0 39 71 -63
c40 -35 96 -84 125 -109z"/>
<path d="M750 1765 c-10 -12 -10 -21 -2 -40 l12 -25 324 0 c352 0 356 1 342
55 l-6 25 -329 0 c-283 0 -330 -2 -341 -15z"/>
<path d="M750 1485 c-10 -12 -10 -21 -2 -40 l12 -25 324 0 c352 0 356 1 342
55 l-6 25 -329 0 c-283 0 -330 -2 -341 -15z"/>
<path d="M762 1214 c-26 -18 -28 -37 -6 -58 13 -14 58 -16 333 -16 233 0 320
3 329 12 21 21 14 58 -14 68 -14 6 -154 10 -322 10 -253 0 -301 -2 -320 -16z"/>
<path d="M756 934 c-9 -8 -16 -22 -16 -29 0 -7 7 -21 16 -29 13 -14 57 -16
325 -16 195 0 318 4 330 10 11 6 19 21 19 35 0 14 -8 29 -19 35 -12 6 -135 10
-330 10 -268 0 -312 -2 -325 -16z"/>
</g>
</svg>
